<svg width="95" height="30" viewBox="0 0 95 30" fill="none" xmlns="http://www.w3.org/2000/svg">
<path d="M7.08362 13.2595C4.97372 13.2595 3.3632 12.7227 2.25207 11.649C1.15342 10.5629 0.604095 9.05846 0.604095 7.13582C0.604095 5.12579 1.14093 3.57146 2.21461 2.47281C3.30078 1.37416 4.91754 0.824837 7.06489 0.824837C7.80149 0.824837 8.45693 0.881018 9.03122 0.99338C9.618 1.10574 10.1798 1.25556 10.7167 1.44283V4.08333C9.63049 3.63388 8.48814 3.40916 7.28962 3.40916C6.04115 3.40916 5.12353 3.70879 4.53676 4.30805C3.96246 4.90731 3.67532 5.8499 3.67532 7.13582C3.67532 8.35932 3.98119 9.25821 4.59294 9.8325C5.20468 10.4068 6.11606 10.6939 7.32707 10.6939C7.91385 10.6939 8.49439 10.644 9.06868 10.5441C9.64297 10.4318 10.1985 10.2632 10.7354 10.0385V12.6977C10.211 12.8725 9.65546 13.0098 9.06868 13.1097C8.4819 13.2096 7.82021 13.2595 7.08362 13.2595ZM17.7163 13.2595C15.7562 13.2595 14.2643 12.7601 13.2405 11.7614C12.2168 10.7626 11.7049 9.20827 11.7049 7.09837C11.7049 4.86362 12.2168 3.25934 13.2405 2.28554C14.2643 1.31174 15.7562 0.824837 17.7163 0.824837C19.6764 0.824837 21.1683 1.31174 22.192 2.28554C23.2158 3.25934 23.7276 4.86362 23.7276 7.09837C23.7276 9.20827 23.2158 10.7626 22.192 11.7614C21.1683 12.7601 19.6764 13.2595 17.7163 13.2595ZM17.7163 10.6939C18.7275 10.6939 19.4641 10.4068 19.9261 9.8325C20.4005 9.24572 20.6377 8.33435 20.6377 7.09837C20.6377 5.75003 20.4005 4.80119 19.9261 4.25187C19.4641 3.69006 18.7275 3.40916 17.7163 3.40916C16.6925 3.40916 15.9435 3.69006 15.4691 4.25187C15.0071 4.80119 14.7762 5.75003 14.7762 7.09837C14.7762 8.33435 15.0071 9.24572 15.4691 9.8325C15.9435 10.4068 16.6925 10.6939 17.7163 10.6939ZM23.8665 13.0723L28.4733 1.01211H31.7318L36.3386 13.0723H33.1925L32.1063 10.3381H28.08L27.0126 13.0723H23.8665ZM28.492 8.10962H31.6943L30.0838 3.91478L28.492 8.10962ZM40.8634 13.2595C40.0644 13.2595 39.3153 13.1971 38.6162 13.0723C37.9295 12.9599 37.3365 12.7914 36.8371 12.5666V10.001C37.3864 10.2383 37.9919 10.4318 38.6536 10.5816C39.3278 10.7314 39.9645 10.8063 40.5638 10.8063C41.3128 10.8063 41.8684 10.7376 42.2305 10.6003C42.605 10.463 42.7923 10.1633 42.7923 9.70141C42.7923 9.3893 42.6986 9.13961 42.5114 8.95234C42.3366 8.76507 42.0432 8.60277 41.6312 8.46543C41.2317 8.31562 40.6824 8.14083 39.9832 7.94108C39.1592 7.69139 38.5038 7.41673 38.0169 7.11709C37.53 6.80498 37.1804 6.43044 36.9682 5.99348C36.7559 5.55651 36.6498 5.01968 36.6498 4.38296C36.6498 3.23437 37.0618 2.35421 37.8858 1.74246C38.7098 1.13071 39.927 0.824837 41.5376 0.824837C42.2367 0.824837 42.9171 0.881018 43.5788 0.99338C44.2405 1.09326 44.7773 1.21186 45.1893 1.34919V3.93351C44.6525 3.72127 44.1094 3.56522 43.5601 3.46534C43.0232 3.36546 42.4989 3.31552 41.987 3.31552C41.3128 3.31552 40.7635 3.37795 40.339 3.50279C39.927 3.62764 39.721 3.91478 39.721 4.36423C39.721 4.62641 39.796 4.83865 39.9458 5.00095C40.0956 5.15076 40.3515 5.28809 40.7136 5.41294C41.0881 5.53779 41.5937 5.6876 42.2305 5.86239C43.2167 6.12457 43.9721 6.44292 44.4964 6.81746C45.0208 7.17952 45.3828 7.604 45.5826 8.0909C45.7823 8.56531 45.8822 9.10215 45.8822 9.70141C45.8822 10.7626 45.4702 11.624 44.6462 12.2857C43.8222 12.9349 42.5613 13.2595 40.8634 13.2595ZM49.8365 13.0723V3.33425H46.2971V1.01211H56.391V3.33425H52.8516V13.0723H49.8365ZM57.7447 13.0723V1.01211H60.7597V10.7501H66.4527V13.0723H57.7447ZM67.6203 13.0723V1.01211H70.6353V13.0723H67.6203ZM72.5397 13.0723V1.01211H75.1241L80.2552 8.22198V1.01211H83.289V13.0723H80.686L75.5548 5.88112V13.0723H72.5397ZM85.1951 13.0723V1.01211H94.0904V3.33425H88.2101V5.86239H93.3975V8.22198H88.2101V10.7501H94.0904V13.0723H85.1951ZM0.978634 29.0723V17.0121H7.3458C8.55681 17.0121 9.46819 17.2993 10.0799 17.8735C10.7042 18.4478 11.0163 19.2593 11.0163 20.3081C11.0163 20.9448 10.8914 21.4816 10.6417 21.9186C10.4045 22.343 10.0862 22.6739 9.68667 22.9111C10.236 23.1109 10.6667 23.4042 10.9788 23.7913C11.2909 24.1783 11.447 24.7588 11.447 25.5329C11.447 26.6815 11.1099 27.5616 10.4357 28.1734C9.76158 28.7726 8.79402 29.0723 7.53307 29.0723H0.978634ZM3.99367 21.9186H6.44691C6.97126 21.9186 7.35204 21.8 7.58925 21.5628C7.82646 21.3255 7.94506 20.9947 7.94506 20.5702C7.94506 20.1083 7.82646 19.765 7.58925 19.5402C7.35204 19.303 6.92132 19.1844 6.29709 19.1844H3.99367V21.9186ZM3.99367 26.9187H6.74654C7.29586 26.9187 7.70161 26.8063 7.96379 26.5816C8.23845 26.3569 8.37578 25.9573 8.37578 25.3831C8.37578 24.9211 8.24469 24.5778 7.98252 24.3531C7.72034 24.1159 7.27089 23.9973 6.63417 23.9973H3.99367V26.9187ZM18.4251 29.2595C17.3015 29.2595 16.3215 29.0785 15.485 28.7165C14.661 28.3544 14.0181 27.8176 13.5561 27.1059C13.1067 26.3943 12.882 25.5204 12.882 24.4842V17.0121H15.897V24.2033C15.897 25.0397 16.1155 25.664 16.5524 26.076C16.9894 26.4879 17.6136 26.6939 18.4251 26.6939C19.2366 26.6939 19.8609 26.4879 20.2978 26.076C20.7348 25.664 20.9533 25.0397 20.9533 24.2033V17.0121H23.9683V24.4842C23.9683 25.5204 23.7373 26.3943 23.2754 27.1059C22.826 27.8176 22.183 28.3544 21.3465 28.7165C20.5226 29.0785 19.5487 29.2595 18.4251 29.2595ZM25.7772 29.0723V17.0121H28.7923V29.0723H25.7772ZM30.6967 29.0723V17.0121H33.7117V26.7501H39.4047V29.0723H30.6967ZM40.5722 29.0723V17.0121H45.7971C47.0206 17.0121 48.0505 17.2181 48.887 17.6301C49.7235 18.0296 50.3602 18.6788 50.7972 19.5777C51.2341 20.4641 51.4526 21.6439 51.4526 23.1171C51.4526 25.1895 50.9719 26.7002 50.0106 27.649C49.0618 28.5978 47.6573 29.0723 45.7971 29.0723H40.5722ZM43.5873 26.7501H45.3851C46.0343 26.7501 46.5774 26.6565 47.0143 26.4692C47.4638 26.2695 47.8008 25.9074 48.0256 25.3831C48.2628 24.8587 48.3814 24.1034 48.3814 23.1171C48.3814 22.1183 48.2753 21.3505 48.063 20.8137C47.8633 20.2644 47.5387 19.8836 47.0892 19.6713C46.6523 19.4466 46.0842 19.3342 45.3851 19.3342H43.5873V26.7501Z" fill="#0B132B"/>
</svg>
